HIERARCHY
ROOT Root
{
  OFFSET 0.0 0.0 0.0
  CHANNELS 6 Xposition Yposition Zposition Zrotation Yrotation Xrotation
  JOINT Hips
  {
    OFFSET 0.0 100.0 0.0
    CHANNELS 6 Xposition Yposition Zposition Zrotation Yrotation Xrotation
    JOINT Spine1
    {
      OFFSET 5.003913 -0.037094 -0.013727
      CHANNELS 3 Zrotation Yrotation Xrotation
      JOINT Spine2
      {
        OFFSET 7.125363 -1e-06 0.0
        CHANNELS 3 Zrotation Yrotation Xrotation
        JOINT Chest
        {
          OFFSET 7.594027 1e-06 0.0
          CHANNELS 3 Zrotation Yrotation Xrotation
          JOINT Neck1
          {
            OFFSET 26.313086 -0.460272 -0.181672
            CHANNELS 3 Zrotation Yrotation Xrotation
            JOINT Neck2
            {
              OFFSET 8.045911 0.0 0.0
              CHANNELS 3 Zrotation Yrotation Xrotation
              JOINT Head
              {
                OFFSET 6.432774 0.0 0.0
                CHANNELS 3 Zrotation Yrotation Xrotation
                JOINT HeadEnd
                {
                  OFFSET 16.169773 0.06451 0.00362
                  CHANNELS 3 Zrotation Yrotation Xrotation
                }
                JOINT Jaw
                {
                  OFFSET 0.108741 3.12938 0.002639
                  CHANNELS 3 Zrotation Yrotation Xrotation
                }
                JOINT LeftEye
                {
                  OFFSET 4.45173 8.166359 3.206392
                  CHANNELS 3 Zrotation Yrotation Xrotation
                }
                JOINT RightEye
                {
                  OFFSET 4.436895 8.135758 -3.222429
                  CHANNELS 3 Zrotation Yrotation Xrotation
                }
              }
            }
          }
          JOINT LeftShoulder
          {
            OFFSET 23.218927 5.195579 1.621656
            CHANNELS 3 Zrotation Yrotation Xrotation
            JOINT LeftArm
            {
              OFFSET 15.902118 2e-06 -2e-06
              CHANNELS 3 Zrotation Yrotation Xrotation
              JOINT LeftForeArm
              {
                OFFSET 28.739307 0.0 -1e-06
                CHANNELS 3 Zrotation Yrotation Xrotation
                JOINT LeftHand
                {
                  OFFSET 27.093981 -4e-06 0.0
                  CHANNELS 3 Zrotation Yrotation Xrotation
                  JOINT LeftHandThumb1
                  {
                    OFFSET 2.276781 3.380274 0.83384
                    CHANNELS 3 Zrotation Yrotation Xrotation
                    JOINT LeftHandThumb2
                    {
                      OFFSET 4.705309 -1e-06 -1e-06
                      CHANNELS 3 Zrotation Yrotation Xrotation
                      JOINT LeftHandThumb3
                      {
                        OFFSET 2.798515 0.0 3e-06
                        CHANNELS 3 Zrotation Yrotation Xrotation
                        JOINT LeftHandThumbEnd
                        {
                          OFFSET 3.180793 4e-06 -4e-06
                          CHANNELS 3 Zrotation Yrotation Xrotation
                        }
                      }
                    }
                  }
                  JOINT LeftHandIndex1
                  {
                    OFFSET 3.247786 2.352677 0.137192
                    CHANNELS 3 Zrotation Yrotation Xrotation
                    JOINT LeftHandIndex2
                    {
                      OFFSET 6.367095 1e-06 0.0
                      CHANNELS 3 Zrotation Yrotation Xrotation
                      JOINT LeftHandIndex3
                      {
                        OFFSET 3.662364 0.0 0.0
                        CHANNELS 3 Zrotation Yrotation Xrotation
                        JOINT LeftHandIndex4
                        {
                          OFFSET 2.329242 4e-06 -4e-06
                          CHANNELS 3 Zrotation Yrotation Xrotation
                          JOINT LeftHandIndexEnd
                          {
                            OFFSET 2.767823 1e-06 0.0
                            CHANNELS 3 Zrotation Yrotation Xrotation
                          }
                        }
                      }
                    }
                  }
                  JOINT LeftHandMiddle1
                  {
                    OFFSET 3.163612 0.945023 -0.406112
                    CHANNELS 3 Zrotation Yrotation Xrotation
                    JOINT LeftHandMiddle2
                    {
                      OFFSET 6.276789 3e-06 0.0
                      CHANNELS 3 Zrotation Yrotation Xrotation
                      JOINT LeftHandMiddle3
                      {
                        OFFSET 4.35652 -1e-06 4e-06
                        CHANNELS 3 Zrotation Yrotation Xrotation
                        JOINT LeftHandMiddle4
                        {
                          OFFSET 2.996877 0.0 8e-06
                          CHANNELS 3 Zrotation Yrotation Xrotation
                          JOINT LeftHandMiddleEnd
                          {
                            OFFSET 2.323256 3e-06 -4e-06
                            CHANNELS 3 Zrotation Yrotation Xrotation
                          }
                        }
                      }
                    }
                  }
                  JOINT LeftHandRing1
                  {
                    OFFSET 2.882606 -0.309162 0.107445
                    CHANNELS 3 Zrotation Yrotation Xrotation
                    JOINT LeftHandRing2
                    {
                      OFFSET 6.033198 0.0 4e-06
                      CHANNELS 3 Zrotation Yrotation Xrotation
                      JOINT LeftHandRing3
                      {
                        OFFSET 4.350578 3e-06 0.0
                        CHANNELS 3 Zrotation Yrotation Xrotation
                        JOINT LeftHandRing4
                        {
                          OFFSET 2.651321 2e-06 -7e-06
                          CHANNELS 3 Zrotation Yrotation Xrotation
                          JOINT LeftHandRingEnd
                          {
                            OFFSET 1.937663 1e-06 -4e-06
                            CHANNELS 3 Zrotation Yrotation Xrotation
                          }
                        }
                      }
                    }
                  }
                  JOINT LeftHandPinky1
                  {
                    OFFSET 2.865315 -1.525436 0.575687
                    CHANNELS 3 Zrotation Yrotation Xrotation
                    JOINT LeftHandPinky2
                    {
                      OFFSET 5.54936 1e-06 -8e-06
                      CHANNELS 3 Zrotation Yrotation Xrotation
                      JOINT LeftHandPinky3
                      {
                        OFFSET 3.070974 0.0 -4e-06
                        CHANNELS 3 Zrotation Yrotation Xrotation
                        JOINT LeftHandPinky4
                        {
                          OFFSET 1.549672 1e-06 0.0
                          CHANNELS 3 Zrotation Yrotation Xrotation
                          JOINT LeftHandPinkyEnd
                          {
                            OFFSET 1.952123 0.0 0.0
                            CHANNELS 3 Zrotation Yrotation Xrotation
                          }
                        }
                      }
                    }
                  }
                }
              }
            }
          }
          JOINT RightShoulder
          {
            OFFSET 23.161716 5.296122 -1.380114
            CHANNELS 3 Zrotation Yrotation Xrotation
            JOINT RightArm
            {
              OFFSET -16.027195 -2e-06 1.1e-05
              CHANNELS 3 Zrotation Yrotation Xrotation
              JOINT RightForeArm
              {
                OFFSET -28.736639 4e-06 2e-06
                CHANNELS 3 Zrotation Yrotation Xrotation
                JOINT RightHand
                {
                  OFFSET -27.133619 6e-06 0.0
                  CHANNELS 3 Zrotation Yrotation Xrotation
                  JOINT RightHandThumb1
                  {
                    OFFSET -2.274328 -3.351035 -0.83067
                    CHANNELS 3 Zrotation Yrotation Xrotation
                    JOINT RightHandThumb2
                    {
                      OFFSET -4.703594 -3e-06 2e-06
                      CHANNELS 3 Zrotation Yrotation Xrotation
                      JOINT RightHandThumb3
                      {
                        OFFSET -2.794935 -4e-06 -3e-06
                        CHANNELS 3 Zrotation Yrotation Xrotation
                        JOINT RightHandThumbEnd
                        {
                          OFFSET -3.183852 4e-06 1e-06
                          CHANNELS 3 Zrotation Yrotation Xrotation
                        }
                      }
                    }
                  }
                  JOINT RightHandIndex1
                  {
                    OFFSET -3.253496 -2.33755 -0.127667
                    CHANNELS 3 Zrotation Yrotation Xrotation
                    JOINT RightHandIndex2
                    {
                      OFFSET -6.344434 0.0 0.0
                      CHANNELS 3 Zrotation Yrotation Xrotation
                      JOINT RightHandIndex3
                      {
                        OFFSET -3.654871 0.0 -8e-06
                        CHANNELS 3 Zrotation Yrotation Xrotation
                        JOINT RightHandIndex4
                        {
                          OFFSET -2.327586 -1e-06 0.0
                          CHANNELS 3 Zrotation Yrotation Xrotation
                          JOINT RightHandIndexEnd
                          {
                            OFFSET -2.770001 3e-06 8e-06
                            CHANNELS 3 Zrotation Yrotation Xrotation
                          }
                        }
                      }
                    }
                  }
                  JOINT RightHandMiddle1
                  {
                    OFFSET -3.168223 -0.944764 0.411762
                    CHANNELS 3 Zrotation Yrotation Xrotation
                    JOINT RightHandMiddle2
                    {
                      OFFSET -6.266691 -1e-06 -4e-06
                      CHANNELS 3 Zrotation Yrotation Xrotation
                      JOINT RightHandMiddle3
                      {
                        OFFSET -4.348901 0.0 0.0
                        CHANNELS 3 Zrotation Yrotation Xrotation
                        JOINT RightHandMiddle4
                        {
                          OFFSET -3.00024 2e-06 -4e-06
                          CHANNELS 3 Zrotation Yrotation Xrotation
                          JOINT RightHandMiddleEnd
                          {
                            OFFSET -2.321477 -4e-06 -4e-06
                            CHANNELS 3 Zrotation Yrotation Xrotation
                          }
                        }
                      }
                    }
                  }
                  JOINT RightHandRing1
                  {
                    OFFSET -2.885654 0.293261 -0.119232
                    CHANNELS 3 Zrotation Yrotation Xrotation
                    JOINT RightHandRing2
                    {
                      OFFSET -6.032835 -1e-06 -4e-06
                      CHANNELS 3 Zrotation Yrotation Xrotation
                      JOINT RightHandRing3
                      {
                        OFFSET -4.33881 0.0 -4e-06
                        CHANNELS 3 Zrotation Yrotation Xrotation
                        JOINT RightHandRing4
                        {
                          OFFSET -2.654903 -4e-06 -4e-06
                          CHANNELS 3 Zrotation Yrotation Xrotation
                          JOINT RightHandRingEnd
                          {
                            OFFSET -1.935122 0.0 4e-06
                            CHANNELS 3 Zrotation Yrotation Xrotation
                          }
                        }
                      }
                    }
                  }
                  JOINT RightHandPinky1
                  {
                    OFFSET -2.866241 1.503904 -0.60527
                    CHANNELS 3 Zrotation Yrotation Xrotation
                    JOINT RightHandPinky2
                    {
                      OFFSET -5.553177 -2e-06 0.0
                      CHANNELS 3 Zrotation Yrotation Xrotation
                      JOINT RightHandPinky3
                      {
                        OFFSET -3.062664 -1e-06 -4e-06
                        CHANNELS 3 Zrotation Yrotation Xrotation
                        JOINT RightHandPinky4
                        {
                          OFFSET -1.546529 2e-06 4e-06
                          CHANNELS 3 Zrotation Yrotation Xrotation
                          JOINT RightHandPinkyEnd
                          {
                            OFFSET -1.952341 0.0 -4e-06
                            CHANNELS 3 Zrotation Yrotation Xrotation
                          }
                        }
                      }
                    }
                  }
                }
              }
            }
          }
        }
      }
    }
    JOINT LeftLeg
    {
      OFFSET -8.443107 2.567604 10.043214
      CHANNELS 3 Zrotation Yrotation Xrotation
      JOINT LeftShin
      {
        OFFSET 43.229198 1e-06 -1e-06
        CHANNELS 3 Zrotation Yrotation Xrotation
        JOINT LeftFoot
        {
          OFFSET 42.298611 1e-06 1e-06
          CHANNELS 3 Zrotation Yrotation Xrotation
          JOINT LeftToeBase
          {
            OFFSET 14.165858 1e-06 0.0
            CHANNELS 3 Zrotation Yrotation Xrotation
            JOINT LeftToeEnd
            {
              OFFSET 6.7141 -0.234461 0.0
              CHANNELS 3 Zrotation Yrotation Xrotation
            }
          }
        }
      }
    }
    JOINT RightLeg
    {
      OFFSET -8.303923 2.592729 -10.047278
      CHANNELS 3 Zrotation Yrotation Xrotation
      JOINT RightShin
      {
        OFFSET -43.369682 0.0 1e-06
        CHANNELS 3 Zrotation Yrotation Xrotation
        JOINT RightFoot
        {
          OFFSET -42.260784 4e-06 2e-06
          CHANNELS 3 Zrotation Yrotation Xrotation
          JOINT RightToeBase
          {
            OFFSET -14.222245 -2e-06 -1e-06
            CHANNELS 3 Zrotation Yrotation Xrotation
            JOINT RightToeEnd
            {
              OFFSET -6.660062 0.232574 -2e-06
              CHANNELS 3 Zrotation Yrotation Xrotation
            }
          }
        }
      }
    }
  }
}
MOTION
Frames: 5
Frame Time: 0.03333333333333333
0.0 0.0 0.0 0.0 -0.0 0.0 -0.188715 84.719864 -0.909198 92.372917 8.756941 93.306 12.983448 -2.798646 -0.263456 -6.02327 -1.892131 0.396965 27.207697 -6.688991 -4.475146 39.96003 -10.256293 2.127749 -2.623856 -0.446677 5.125231 -44.321621 2.897437 5.312417 5e-06 -0.0 1e-06 0.061193 -0.015353 0.027145 0.256766 -0.01798 0.094466 0.316197 -0.031867 -0.030069 -4.819274 -86.262833 10.320878 30.242521 3.490883 -62.507111 41.334694 0.328285 0.005476 15.73428 3.612735 -66.778275 17.636631 -26.322729 52.411186 -19.46666 -14.395597 29.410385 -1e-06 -8.774822 -2e-06 15.2737 -18.538214 6.861651 -0.609777 -1.795651 -3.889326 -4.807087 -11.046809 -2.937851 5e-06 -20.976015 -0.0 -5.019971 -25.033556 -4.031879 6e-06 0.0 1e-06 -10.634531 -5.68697 -3.565586 10.573272 -17.922947 -3.113901 3e-06 -13.821205 2e-06 -0.501779 -31.181501 -4.027015 -12.131192 -60.343582 7.857063 -13.982714 -7.150198 -2.875041 13.77273 -8.401493 -3.218242 0.347733 -34.211555 0.771654 -0.963027 -17.73337 2.62102 -1e-06 2e-06 0.0 -17.346422 -20.095217 -4.20178 21.757563 -1.638376 3.866428 1e-06 -6.338822 1e-06 -1.697588 -22.591745 -6.194005 -0.0 -4e-06 -2e-06 -165.619537 -81.161537 -3.008004 12.892429 -9.37607 -66.112526 48.441273 -1.777157 -2.001699 2.370999 10.947892 -81.028427 22.182116 -20.375895 49.933327 -16.701811 -16.743528 28.476528 -2e-06 -12.6906 -2e-06 16.887671 -16.981413 2.538285 -0.105917 -1.513856 -4.275881 -5.039042 -5.612871 -2.953556 3e-06 -11.020523 -1e-06 -6.1113 -15.89533 -3.840469 -0.0 -1e-06 -0.0 -10.283372 -5.680288 -4.341838 11.028294 -11.302402 -2.372633 -1.384268 -14.238579 -6.320121 -0.625441 -26.924183 -3.827602 -5.259844 -49.441608 -2.835913 -13.708527 -7.363477 -3.720939 18.141148 -14.052739 -3.242674 4e-06 -18.78727 -1e-06 -0.429711 -8.456042 2.555503 0.0 -1e-06 -0.0 -15.923536 -20.094482 -5.473585 30.41921 -7.190824 1.735927 -0.0 -8.162925 -0.0 -1.861901 -22.861467 -6.167943 0.0 -3e-06 -2e-06 152.923386 -3.697658 -0.349395 69.793823 0.03437 0.066969 -102.150818 0.616652 -4.638505 -5.271852 1.293444 2.073328 -0.999998 0.0 -0.0 -27.069151 -3.960526 -1.2995 71.698898 -0.02262 -0.027675 -103.673172 -13.005462 -8.574241 -5.147396 0.769104 1.712392 -1.000001 0.0 0.0 
0.0 0.0 0.0 0.0 -0.0 0.0 -0.18541 84.671036 -1.001025 92.395432 8.77363 93.160591 13.066523 -2.810827 -0.264065 -6.013561 -1.892532 0.403503 27.167917 -6.760592 -4.529583 39.766937 -10.164894 2.160901 -2.620026 -0.405285 4.862561 -44.317242 3.051111 5.01864 6e-06 -1e-06 -1e-06 0.056147 -0.01273 0.027343 0.259578 -0.017181 0.094227 0.321979 -0.027548 -0.029072 -2.265135 -86.317619 7.659462 30.09267 3.791467 -62.472961 41.595943 0.358812 0.003035 15.874027 3.460685 -66.818245 17.636629 -26.322737 52.411182 -19.46665 -14.395597 29.410378 -0.0 -8.774821 -2e-06 15.260436 -18.537996 6.851073 -0.609776 -1.795651 -3.889326 -4.807088 -11.046811 -2.937847 1e-06 -20.976019 3e-06 -5.019973 -25.033556 -4.031877 5e-06 -0.0 1e-06 -10.634531 -5.68697 -3.565586 10.573271 -17.922949 -3.113897 3e-06 -13.821208 4e-06 -0.501786 -31.181505 -4.02701 -12.085467 -60.258682 7.817387 -13.982712 -7.150194 -2.875042 13.772727 -8.401491 -3.218239 0.347728 -34.211555 0.77166 -0.963029 -17.73337 2.621021 -0.0 1e-06 0.0 -17.346415 -20.095211 -4.201779 21.757557 -1.638375 3.866428 1e-06 -6.338824 2e-06 -1.697592 -22.591742 -6.194002 1e-06 -6e-06 -2e-06 -165.515808 -80.877121 -3.215053 13.067445 -8.860506 -66.400917 48.239647 -1.642724 -1.874551 2.027701 11.142038 -81.375885 22.182117 -20.375904 49.933323 -16.701807 -16.743528 28.476522 -3e-06 -12.690601 -1e-06 16.855501 -16.950266 2.606222 -0.105919 -1.513856 -4.275879 -5.039039 -5.61287 -2.953557 3e-06 -11.02052 0.0 -6.111295 -15.895329 -3.840468 -1e-06 -0.0 -0.0 -10.283369 -5.680288 -4.341838 11.028291 -11.302404 -2.37263 -1.384267 -14.238579 -6.320119 -0.625439 -26.924187 -3.827598 -5.335232 -49.4534 -2.717588 -13.708523 -7.363472 -3.720939 18.141142 -14.052739 -3.24267 6e-06 -18.78727 1e-06 -0.429714 -8.456041 2.555504 2e-06 -1e-06 0.0 -15.923534 -20.094479 -5.473583 30.419205 -7.190827 1.735927 1e-06 -8.162925 0.0 -1.861902 -22.861467 -6.167939 -0.0 -3e-06 -0.0 152.8871 -3.747945 -0.500275 69.85553 0.035809 0.060034 -102.210075 0.66737 -4.591913 -5.249327 1.288289 2.071719 -0.999999 0.0 0.0 -27.222294 -3.909942 -1.127451 71.878479 -0.028348 -0.032159 -103.574387 -13.056371 -8.602566 -5.164962 0.773466 1.709945 -1.000002 0.0 0.0 
0.0 0.0 0.0 0.0 -0.0 0.0 -0.181936 84.629974 -1.075848 92.439552 8.776207 93.042351 13.118637 -2.837261 -0.275632 -6.010019 -1.909362 0.414745 27.084003 -6.83267 -4.580655 39.420643 -9.993063 2.19747 -2.617722 -0.380734 4.597298 -44.243366 3.195757 4.622438 6e-06 -0.0 2e-06 0.052973 -0.012721 0.03042 0.254912 -0.017978 0.094392 0.31814 -0.026724 -0.02255 0.990611 -86.315125 4.300671 30.027189 4.025705 -62.374676 41.899509 0.44684 0.001779 16.073278 3.293019 -66.875809 17.636631 -26.322721 52.411182 -19.466665 -14.395598 29.410393 -0.0 -8.774824 -1e-06 15.241424 -18.533381 6.854386 -0.609777 -1.795654 -3.889325 -4.80709 -11.046813 -2.93785 4e-06 -20.976019 -3e-06 -5.019969 -25.03356 -4.031884 6e-06 1e-06 1e-06 -10.634537 -5.686971 -3.565587 10.573277 -17.922951 -3.113901 4e-06 -13.821209 0.0 -0.501777 -31.181505 -4.027019 -12.037816 -60.166428 7.780118 -13.982716 -7.150198 -2.875041 13.77273 -8.401491 -3.218242 0.347735 -34.211555 0.77165 -0.963025 -17.73337 2.621018 -0.0 1e-06 0.0 -17.346422 -20.095219 -4.201779 21.757557 -1.638374 3.866428 1e-06 -6.338823 -0.0 -1.69759 -22.591747 -6.194009 1e-06 -5e-06 -1e-06 -165.367767 -80.60376 -3.517319 13.293133 -8.319447 -66.523399 47.961498 -1.413346 -1.695288 1.592079 11.35326 -81.954758 22.182119 -20.375895 49.933323 -16.701815 -16.743526 28.47653 -3e-06 -12.690607 -1e-06 16.811836 -16.943583 2.658654 -0.105919 -1.513856 -4.275883 -5.039041 -5.612874 -2.953557 0.0 -11.020527 -2e-06 -6.111298 -15.895338 -3.840472 0.0 -1e-06 0.0 -10.283372 -5.680292 -4.341841 11.028296 -11.302407 -2.372633 -1.384268 -14.238586 -6.320123 -0.625441 -26.924198 -3.827603 -5.404841 -49.386086 -2.610993 -13.708526 -7.363477 -3.720941 18.141153 -14.05274 -3.242676 6e-06 -18.787271 -4e-06 -0.429712 -8.456043 2.555503 2e-06 -0.0 -0.0 -15.923532 -20.094492 -5.473588 30.419218 -7.190827 1.735926 4e-06 -8.162927 -2e-06 -1.861898 -22.861473 -6.167947 -0.0 -3e-06 -2e-06 152.850082 -3.793756 -0.656418 69.896103 0.040715 0.050959 -102.251541 0.756773 -4.561114 -5.247226 1.283732 2.069601 -0.999999 0.0 -0.0 -27.368855 -3.899987 -0.971124 72.044205 -0.026099 -0.048341 -103.493919 -13.04542 -8.626574 -5.171254 0.772506 1.704971 -1.000001 0.0 0.0 
0.0 0.0 0.0 0.0 -0.0 0.0 -0.179907 84.596466 -1.130519 92.507721 8.764269 92.941681 13.131522 -2.885941 -0.295715 -6.001864 -1.937463 0.428924 26.937401 -6.911385 -4.638986 38.90675 -9.741434 2.205652 -2.623895 -0.366209 4.363749 -44.106865 3.31741 4.154337 7e-06 -1e-06 1e-06 0.050652 -0.014963 0.037587 0.242317 -0.018827 0.097634 0.303615 -0.030063 -0.011253 4.577528 -86.289062 0.641965 30.029583 4.17677 -62.149212 42.353146 0.578063 -0.021389 16.356649 3.177341 -66.970573 17.636633 -26.322737 52.411213 -19.466665 -14.3956 29.410395 -1e-06 -8.774822 -2e-06 15.238855 -18.53647 6.859238 -0.609777 -1.795654 -3.889328 -4.807088 -11.046813 -2.937851 4e-06 -20.976021 -1e-06 -5.019969 -25.033564 -4.031884 6e-06 2e-06 2e-06 -10.634535 -5.686971 -3.565589 10.573272 -17.922951 -3.113901 4e-06 -13.821212 1e-06 -0.501776 -31.181507 -4.027017 -12.006149 -60.124203 7.744552 -13.982716 -7.150198 -2.875043 13.772731 -8.401493 -3.218242 0.347734 -34.211555 0.771654 -0.96303 -17.73337 2.62102 -0.0 1e-06 -0.0 -17.346422 -20.095221 -4.201784 21.757565 -1.638375 3.866428 2e-06 -6.338825 1e-06 -1.697591 -22.591749 -6.194008 -0.0 -4e-06 -2e-06 -165.069305 -80.317978 -4.026233 13.579016 -7.823241 -66.554375 47.698303 -1.148955 -1.504647 1.034687 11.587273 -82.687233 22.182114 -20.375898 49.933323 -16.701811 -16.74353 28.476532 -3e-06 -12.690601 -1e-06 16.768221 -16.962088 2.688653 -0.105922 -1.513858 -4.275881 -5.039041 -5.612869 -2.953557 2e-06 -11.02052 -0.0 -6.111296 -15.895329 -3.84047 0.0 -1e-06 -0.0 -10.283367 -5.680288 -4.341838 11.028288 -11.302404 -2.372632 -1.384266 -14.23858 -6.320121 -0.625443 -26.924187 -3.827599 -5.448909 -49.284515 -2.542782 -13.708523 -7.363476 -3.720941 18.141146 -14.052738 -3.242674 7e-06 -18.787266 -2e-06 -0.429713 -8.456041 2.555504 3e-06 -1e-06 1e-06 -15.923532 -20.094482 -5.473586 30.41921 -7.190825 1.735927 2e-06 -8.162925 -0.0 -1.861901 -22.861469 -6.167941 -0.0 -2e-06 -1e-06 152.828995 -3.837314 -0.835027 69.904411 0.046894 0.045097 -102.300842 0.876102 -4.574367 -5.267017 1.277889 2.068561 -1.0 0.0 -0.0 -27.486767 -3.92118 -0.82372 72.161659 -0.020151 -0.067399 -103.493912 -12.991108 -8.634252 -5.170107 0.767421 1.699074 -1.000001 0.0 0.0 
0.0 0.0 0.0 0.0 -0.0 0.0 -0.185766 84.607544 -1.169178 92.597015 8.760304 92.84449 13.129133 -2.954815 -0.31982 -5.985227 -1.964895 0.440009 26.739491 -7.009036 -4.692503 38.248287 -9.429463 2.146538 -2.633009 -0.362373 4.150456 -43.949589 3.441985 3.611636 5e-06 -0.0 0.0 0.048883 -0.017482 0.044235 0.230136 -0.018392 0.102025 0.290145 -0.035176 -0.003011 8.220551 -86.259064 -3.043461 30.09199 4.224607 -61.694355 43.038387 0.739977 -0.076215 16.760614 3.129744 -67.08754 17.636625 -26.322741 52.411213 -19.466665 -14.3956 29.410402 -1e-06 -8.774824 -2e-06 15.237321 -18.578508 6.894542 -0.609776 -1.795655 -3.889328 -4.807089 -11.046813 -2.93785 3e-06 -20.976023 -1e-06 -5.019971 -25.033566 -4.031881 7e-06 -1e-06 1e-06 -10.634535 -5.686971 -3.565588 10.573278 -17.922955 -3.113902 3e-06 -13.821213 2e-06 -0.501779 -31.181507 -4.027013 -12.042089 -60.17054 7.760483 -13.982714 -7.150198 -2.875042 13.772729 -8.401493 -3.218243 0.347734 -34.211555 0.771654 -0.963031 -17.733374 2.62102 -0.0 0.0 2e-06 -17.34642 -20.095221 -4.201783 21.757559 -1.638373 3.866428 1e-06 -6.338825 1e-06 -1.697589 -22.591753 -6.194008 1e-06 -3e-06 -3e-06 -164.872604 -80.027016 -4.428724 14.003699 -7.378494 -66.685699 47.506218 -0.861016 -1.306599 0.29702 11.79449 -83.601471 22.182117 -20.375896 49.933323 -16.701817 -16.743534 28.476534 -3e-06 -12.690602 -1e-06 16.771776 -16.988968 2.663828 -0.10592 -1.513856 -4.275882 -5.039043 -5.612873 -2.953556 5e-06 -11.020525 -2e-06 -6.111297 -15.895334 -3.840471 -0.0 -0.0 -0.0 -10.283375 -5.68029 -4.34184 11.028301 -11.302406 -2.372633 -1.384267 -14.238585 -6.320124 -0.625438 -26.924194 -3.8276 -5.464856 -49.214836 -2.510548 -13.708526 -7.363476 -3.72094 18.141148 -14.052742 -3.242675 8e-06 -18.787271 -3e-06 -0.429712 -8.456043 2.555504 2e-06 -1e-06 -1e-06 -15.923538 -20.094486 -5.473588 30.419222 -7.190827 1.735926 3e-06 -8.162927 -1e-06 -1.8619 -22.861473 -6.167946 1e-06 -3e-06 -2e-06 152.817993 -3.829113 -1.059837 69.820511 0.048777 0.049537 -102.23098 1.004568 -4.621352 -5.317069 1.271538 2.067021 -0.999999 -0.0 -0.0 -27.528183 -3.954722 -0.67753 72.167763 -0.015029 -0.077311 -103.486755 -12.9426 -8.648966 -5.187668 0.75996 1.693321 -1.000003 0.0 0.0 
